HIERARCHY
ROOT Hips
{
	OFFSET 0.00000 0.00000 0.00000
	CHANNELS 6 Xposition Yposition Zposition Yrotation Zrotation Xrotation 
	JOINT Lumbar
	{
		OFFSET 0 0 0
		CHANNELS 3 Zrotation Xrotation Yrotation
		JOINT Neck
		{
			OFFSET 0.00 0.2701 0.00
			CHANNELS 3 Zrotation Xrotation Yrotation
			End Site
			{
				OFFSET 0.00 0.1379 0.00
			}
		}
		JOINT RightShoulder
		{
			OFFSET 0.0119 0.2289 0.1181
			CHANNELS 3 Zrotation Xrotation Yrotation
			JOINT RightElbow
			{
				OFFSET 0.00 -0.1475 0.00
				CHANNELS 2 Zrotation Yrotation
				JOINT RightWrist
				{
					OFFSET 0.00 -0.1605 0.00
					CHANNELS 2 Zrotation Xrotation
					End Site
					{
						OFFSET 0.0040 -0.1068 0.0006
					}
				}
			}
		}
		JOINT LeftShoulder
		{
			OFFSET 0.0119 0.2289 -0.1181
			CHANNELS 3 Zrotation Xrotation Yrotation
			JOINT LeftElbow
			{
				OFFSET 0.00 -0.1475 0.00
				CHANNELS 2 Zrotation Yrotation
				JOINT LeftWrist
				{
					OFFSET 0.00 -0.1605 0.00
					CHANNELS 2 Zrotation Xrotation
					End Site
					{
						OFFSET 0.0040 -0.1068 -0.0006
					}
				}
			}
		}
	}
	JOINT RightHip
	{
		OFFSET 0.0316 -0.0424 0.0458
		CHANNELS 3 Zrotation Xrotation Yrotation
		JOINT RightKnee
		{
			OFFSET 0.00 -0.2438 0.00
			CHANNELS 1 Zrotation
			JOINT RightAnkle
			{
				OFFSET 0.00 -0.2449 0.00
				CHANNELS 3 Zrotation Xrotation Yrotation
				End Site
				{
					OFFSET 0.1237 -0.0542 0.0051
				}
			}
		}
	}
	JOINT LeftHip
	{
		OFFSET 0.0316 -0.0424 -0.0458
		CHANNELS 3 Zrotation Xrotation Yrotation
		JOINT LeftKnee
		{
			OFFSET 0.00 -0.2438 0.00
			CHANNELS 1 Zrotation
			JOINT LeftAnkle
			{
				OFFSET 0.00 -0.2449 0.00
				CHANNELS 3 Zrotation Xrotation Yrotation
				End Site
				{
					OFFSET 0.1237 -0.0542 -0.0051
				}
			}
		}
	}
}
MOTION
Frames: 11
Frame Time: 0.02
0.55899 0.109 -0.32348 66.19447 -19.10454 -12.68212 32.00674 1.27482 -7.90151 -9.05545 8.19457 -2.11994 10.27676 -21.9866 -25.09082 132.59405 70.05097 -18.44437 -0.22504 1.00996 18.24464 30.5792 127.88198 -61.73089 -11.14811 -4.20802 16.71672 7.81025 -14.72123 -6.32235 -6.6688 -2.97582 -3.68712 37.50513 17.37253 0.58931 -36.54021 -8.48755 1.75899 3.17473
0.55744 0.1087 -0.31941 66.30124 -19.70103 -12.71553 31.35598 1.45876 -8.00932 -9.27534 8.39128 -2.11994 8.98643 -21.05635 -27.0413 133.74878 77.97889 -20.74158 -1.72066 -0.12161 17.07837 32.31257 129.70736 -61.63778 -10.39964 -1.02239 18.36971 7.5415 -15.38242 -7.56746 -6.64346 -2.87872 -3.63657 38.69534 17.17673 -0.04806 -36.82356 -8.46374 1.82609 3.2068
0.55545 0.10837 -0.31536 66.31625 -20.66391 -12.7059 31.1036 1.54517 -8.17692 -9.46458 8.60778 -2.11994 8.04303 -20.25934 -28.95008 133.44765 88.71117 -22.69654 -3.71232 -0.90363 16.30923 33.9608 130.56643 -62.82654 -8.64318 3.30906 20.6389 7.09364 -16.04536 -9.22219 -6.58371 -2.83849 -3.61403 40.10614 16.82317 -0.69881 -36.87062 -8.37882 1.93685 3.25756
0.55364 0.10805 -0.31135 66.36836 -21.45233 -12.71692 30.67396 1.67778 -8.31023 -9.65307 8.81114 -2.11994 6.98567 -19.4459 -30.85456 133.82808 97.82711 -24.72802 -5.39618 -1.79886 15.41342 35.61083 131.84561 -63.3774 -7.40332 6.96214 22.60163 6.73295 -16.66398 -10.65703 -6.53652 -2.78757 -3.58642 41.39053 16.55749 -1.30388 -37.02222 -8.32363 2.02073 3.29648
0.55191 0.10773 -0.30713 66.44093 -22.27155 -12.72496 30.21524 1.80699 -8.47187 -9.89725 9.03395 -2.11994 5.76054 -18.44289 -32.85702 134.11957 108.39312 -27.11142 -7.42807 -2.86478 14.29039 37.40848 133.19515 -64.11208 -5.92846 11.28095 24.66883 6.34967 -17.44352 -12.22104 -6.48166 -2.71756 -3.54917 42.7841 16.22385 -2.07618 -37.18327 -8.2615 2.13373 3.34928
0.54991 0.10742 -0.30336 66.4485 -23.11259 -12.72826 29.91755 1.91802 -8.58957 -10.02084 9.21977 -2.11994 4.96265 -17.86475 -34.64088 134.2474 116.58212 -28.67324 -8.85363 -3.50074 13.73188 38.87885 134.1662 -64.79473 -4.69861 14.48232 26.66389 5.96926 -17.90153 -13.6175 -6.44191 -2.68385 -3.53011 43.99766 15.99253 -2.50726 -37.26661 -8.19886 2.19735 3.37803
0.54729 0.10713 -0.3007 66.30156 -23.94936 -12.73023 29.95792 2.00674 -8.56934 -9.81594 9.30359 -2.11994 5.23692 -18.46224 -35.88809 134.33402 117.78413 -28.05095 -8.47418 -3.03285 14.67303 39.49915 134.39905 -64.93109 -4.3943 14.35734 28.35238 5.65251 -17.41401 -14.46183 -6.46021 -2.73306 -3.5524 44.72561 16.1022 -1.9446 -37.2264 -8.14907 2.1057 3.33184
0.54441 0.10685 -0.2985 66.09194 -24.79085 -12.72845 30.15045 2.079 -8.5038 -9.49245 9.34816 -2.11994 5.93028 -19.47636 -36.90646 134.29303 116.46173 -26.61002 -7.47019 -2.14768 16.16147 39.78834 134.26917 -64.99344 -4.3671 13.06493 29.93965 5.34263 -16.61466 -15.12344 -6.49655 -2.81117 -3.58921 45.25224 16.31662 -1.04684 -37.10916 -8.10077 1.96438 3.26154
0.54163 0.10658 -0.29616 65.909 -25.61529 -12.72737 30.28057 2.15576 -8.46002 -9.22567 9.40749 -2.11994 6.4446 -20.27873 -37.99374 134.28189 116.1107 -25.54192 -6.75657 -1.45825 17.37563 40.20935 134.26725 -65.15393 -4.21256 12.27678 31.5475 5.02154 -15.99996 -15.86366 -6.52243 -2.87156 -3.61733 45.83107 16.4705 -0.33302 -37.00826 -8.05207 1.85113 3.20485
0.53888 0.10629 -0.2935 65.72978 -26.51803 -12.72913 30.3943 2.24247 -8.41179 -8.94455 9.48137 -2.11994 6.92513 -21.18342 -39.22948 134.3569 116.55334 -24.46257 -6.02774 -0.7311 18.71372 40.70648 134.40534 -65.08589 -4.03784 11.62452 33.28748 4.72785 -15.20953 -16.63656 -6.55603 -2.95343 -3.65539 46.5892 16.67418 0.51545 -36.98438 -8.00021 1.71612 3.13757
0.53602 0.10602 -0.29164 65.53002 -27.25067 -12.72455 30.57517 2.30494 -8.3633 -8.66714 9.51434 -2.11994 7.56849 -21.9682 -40.09988 134.21823 114.76506 -23.21196 -5.18198 0.01275 19.91573 40.9669 134.15534 -65.45991 -3.97298 10.41589 34.71583 4.38168 -14.70385 -17.2928 -6.57866 -2.99737 -3.67613 46.91585 16.80016 1.16127 -36.77667 -7.95593 1.61417 3.08642
